<svg viewBox="0 0 800 600" xmlns="http://www.w3.org/2000/svg" preserveAspectRatio="xMidYMid meet" transform="scale(-1, 1)">
  <g stroke-width="0">
    <metadata fill="#a78d45">Created by potrace 1.16, written by Peter Selinger 2001-2019</metadata>
    <g fill="#000000" transform="translate(0 890) scale(0.1 -0.1)">
      <path fill="#a78d45" d="m2393.5,6683.63027c-207,-38 -570,-198 -804,-357c-42,-28 -49,-29 -250,-43c-525,-36 -935,-93 -1066,-148c-47,-19 -134,-85 -174,-130c-37,-42 -57,-79 -66,-122c-5,-22 -17,-35 -40,-47c-39,-18 -46,-42 -46,-164c0,-88 13,-136 46,-165c18,-15 423,-138 457,-138c12,0 15,7 12,28c-18,107 -10,175 33,266c38,79 106,147 190,188c63,31 73,33 172,33c92,-1 112,-4 163,-28c82,-37 177,-134 208,-212c20,-50 24,-78 24,-168l0,-107l30,-5c17,-3 1216,-4 2665,-3c2628,3 2635,3 2632,23c-12,92 -13,139 -2,186c30,126 111,227 228,282c61,29 75,32 167,32c92,0 106,-3 167,-32c158,-75 250,-234 234,-405c-5,-51 -3,-68 6,-68c59,0 539,114 609,144c59,25 63,36 64,160c0,95 -3,116 -21,146c-11,20 -23,58 -27,85c-12,104 -56,194 -114,232c-27,18 -70,25 -463,79l-254,34l-46,40c-193,170 -502,314 -805,375l-123,25l-1863,-1c-1573,-1 -1876,-3 -1943,-15zm296,-80c4,-3 -8,-38 -26,-77c-50,-109 -106,-297 -106,-354c0,-2 -202,-3 -450,-3c-247,0 -450,3 -450,8c0,16 159,156 235,207c132,88 310,163 461,195c96,21 324,37 336,24zm1183,-11c-28,-66 -45,-138 -60,-250c-9,-70 -19,-138 -21,-150l-4,-23l-510,0l-510,0l0,53c0,62 11,130 46,280l26,107l520,0c492,0 520,-1 513,-17zm1881,-80c-3,-54 -11,-153 -18,-220l-11,-123l-880,0l-880,0l7,76c8,83 37,254 55,322l12,42l861,0l861,0l-7,-97zm327,72c337,-37 466,-75 548,-162c38,-40 84,-143 95,-213l7,-40l-452,0l-451,0l0,220c0,152 3,220 11,220c6,0 115,-11 242,-25zm-5683,-685l0,-90l-165,0l-165,0l0,33c0,44 19,108 38,130c13,15 34,17 154,17l138,0l0,-90z"/>
      <path fill="#a78d45" d="m736.5,5790.63027c-118,-39 -204,-131 -235,-251c-42,-165 36,-329 191,-406c53,-26 71,-29 150,-29c82,0 97,3 157,33c74,36 132,95 169,170c20,40 24,63 24,147c0,95 -2,103 -34,163c-63,116 -167,182 -295,189c-50,2 -88,-2 -127,-16zm193,-87c102,-34 178,-138 178,-243c0,-78 -18,-127 -67,-181c-144,-161 -407,-94 -454,116c-45,203 147,375 343,308z"/>
      <path fill="#a78d45" d="m6870.5,5789.63027c-46,-15 -78,-35 -120,-74c-68,-63 -101,-122 -116,-210c-29,-172 93,-355 264,-396c78,-19 177,-8 245,26c73,37 146,118 174,192c29,76 25,203 -9,274c-79,165 -265,244 -438,188zm233,-98c49,-25 108,-88 129,-138c18,-44 19,-146 1,-195c-22,-62 -64,-107 -132,-140c-58,-29 -70,-31 -133,-27c-118,9 -206,78 -238,187c-39,137 38,283 175,328c51,17 149,10 198,-15z"/>
    </g>
  </g>
</svg>
  