<svg width="120" height="120" viewBox="0 0 800 600" fill="none" xmlns="http://www.w3.org/2000/svg">
  <g transform="translate(0 256) scale(0.1 -0.1)" fill="#a78d45" stroke="none">
    <path d="m3744.52989,1278.06638c-285.21225,-218.14453 -565.69722,-325.07812 -951.758,-363.57422c-89.81822,-8.55469 -195.39403,-25.66406 -233.21222,-38.49609c-96.12125,-31.36719 -195.39403,-118.33984 -239.51526,-208.16406c-33.09092,-67.01172 -36.24244,-99.80469 -42.54547,-359.29687c-11.03031,-489.04297 31.51517,-905.37109 122.90915,-1203.35937c133.93945,-433.4375 431.75777,-811.26953 835.15189,-1056.5039c241.09102,-146.85547 647.63665,-313.67187 764.24276,-313.67187c118.18187,0 527.87902,169.66797 772.12155,319.375c162.3031,99.80469 393.93957,300.83984 499.51537,436.28906c343.5153,437.71484 471.15172,952.42187 450.66687,1817.87109c-6.30303,259.49219 -9.45455,292.28516 -42.54547,359.29687c-44.12123,89.82422 -143.394,176.79687 -239.51526,208.16406c-37.8182,12.83203 -143.394,29.94141 -233.21222,38.49609c-386.06078,38.49609 -666.54575,145.42969 -951.758,363.57422l-138.66673,106.93359l-116.60611,0l-116.60611,0l-138.66673,-106.93359zm469.57597,-1008.02734c324.6062,-135.44922 409.69715,-507.57812 170.18189,-744.25781l-77.21216,-76.99219l0,-182.5c0,-212.44141 -14.18182,-272.32422 -81.93943,-342.1875c-66.18185,-68.4375 -130.78794,-95.52734 -226.90919,-95.52734c-102.42429,0 -195.39403,45.625 -253.69708,124.04297c-42.54547,57.03125 -44.12123,65.58594 -48.84851,279.45312l-6.30303,219.57031l-75.6364,75.56641c-94.5455,94.10156 -133.93945,189.62891 -132.3637,325.07812c1.57576,198.18359 118.18187,347.89062 335.63651,430.58594c119.75763,45.625 271.03042,39.92187 397.09109,-12.83203z"/>
    <path d="m3873.74206,94.66794c-72.48488,-35.64453 -119.75763,-79.84375 -151.27279,-142.57812c-61.45457,-119.76562 -29.93941,-223.84766 97.69701,-333.63281l92.96974,-81.26953l0,-236.67969c0,-229.55078 1.57576,-238.10547 34.66668,-259.49219c47.27275,-29.94141 69.33336,-28.51562 107.15156,5.70312c28.36365,25.66406 31.51517,47.05078 31.51517,259.49219l0,230.97656l92.96974,81.26953c94.5455,81.26953 127.63642,141.15234 127.63642,233.82812c0,62.73437 -61.45457,162.53906 -130.78794,212.44141c-48.84851,35.64453 -77.21216,44.19922 -157.57583,48.47656c-69.33336,2.85156 -111.87884,-2.85156 -144.96976,-18.53516z"/>
  </g>
</svg>