<?xml version="1.0" encoding="UTF-8"?> <svg xmlns="http://www.w3.org/2000/svg" width="30" height="30" viewBox="0 0 30 30" fill="none"><rect width="30" height="30" fill="#a78d45"></rect><path d="M7 23L8.16599 18.7247C7.51822 17.5587 7.19433 16.2632 7.19433 14.9028C7.19433 10.5628 10.7571 7 15.0972 7C19.4372 7 23 10.5628 23 14.9028C23 19.2429 19.4372 22.8057 15.0972 22.8057C13.8016 22.8057 12.5061 22.4818 11.3401 21.834L7 23ZM11.4696 20.2794L11.7287 20.4089C12.7004 20.9919 13.8664 21.3158 14.9676 21.3158C18.4656 21.3158 21.3806 18.4656 21.3806 14.9028C21.3806 11.3401 18.5304 8.48988 14.9676 8.48988C11.4696 8.48988 8.55466 11.3401 8.55466 14.9028C8.55466 16.0688 8.87854 17.2348 9.46154 18.2065L9.65587 18.4656L9.0081 20.8623L11.4696 20.2794Z" fill="#090909"></path><path fill-rule="evenodd" clip-rule="evenodd" d="M17.9473 16.0687C17.6234 15.8744 17.17 15.68 16.8461 15.8096C16.5222 15.9391 16.3927 16.3926 16.1983 16.6517C16.0688 16.7812 16.004 16.7812 15.8097 16.7165C14.7085 16.263 13.8664 15.5505 13.2834 14.514C13.1538 14.3845 13.2186 14.2549 13.3481 14.0606C13.5425 13.8663 13.7368 13.6072 13.8016 13.2833C13.8664 13.0242 13.7368 12.6355 13.6073 12.3764C13.4777 12.0525 13.2834 11.5991 12.9595 11.4047C12.6356 11.2104 12.2469 11.3399 11.9878 11.5343C11.5344 11.9229 11.2753 12.5059 11.2753 13.0889C11.2753 13.2833 11.2753 13.4128 11.34 13.6072C11.4048 13.9958 11.5992 14.3845 11.7935 14.7084C11.923 14.9675 12.1174 15.2266 12.3117 15.4857C12.8947 16.263 13.6073 16.9756 14.4494 17.4938C14.9028 17.7529 15.3562 18.012 15.8097 18.1416C16.3279 18.3359 16.7813 18.5302 17.3643 18.4007C17.9473 18.2711 18.5303 17.9472 18.7894 17.3642C18.8542 17.1699 18.919 16.9756 18.8542 16.846C18.7247 16.4574 18.2064 16.1982 17.9473 16.0687Z" fill="#090909"></path></svg> 